<svg width="131" height="98" viewBox="0 0 131 98" fill="none" xmlns="http://www.w3.org/2000/svg">
<path d="M74.3132 23.0588L72.7313 25.4608L72.0534 28.5833L71.6014 32.4265L72.2794 34.5882L74.3132 36.75L74.7651 41.7941L76.121 41.5539L77.2509 40.8333L78.3808 39.152L78.6068 37.2304L78.8328 32.6667L79.2847 28.5833L78.6068 24.2598L80.1886 20.8971L80.6406 18.7353L80.8666 16.3333V13.451L80.4146 12.0098L79.9626 10.5686L78.6068 8.16667L77.7029 7.20588L76.573 6.48529L75.895 6.0049L75.2171 5.28431L73.4093 3.12255L68.6637 0.720588L63.9182 0L60.3025 0.240196L54.653 1.92157L50.3594 4.32353L45.1619 8.40686L42.6762 12.0098L41.6638 16.4392L41.3203 22.3382L41.7723 27.3824L42.4502 31.7059L41.7723 34.348L38.8345 38.9118L31.8292 44.9167L27.5356 47.3186L32.5071 52.6029L36.3488 58.1274L37.4787 61.9706L37.9306 65.3333L37.2527 71.098L35.4449 76.8627L32.7331 82.1471L30.0214 86.4706L25.2758 92.7157L27.9876 92.4755L32.2812 92.2353L38.6086 91.0343L43.1281 90.3137L50.1335 90.7941L53.0712 90.3137L52.3933 87.9118L51.2634 85.5098L49.9075 82.1471L49.4555 77.8235L49.6815 75.902" stroke="white" stroke-width="2"/>
<path d="M66.8559 12.4902L65.274 18.2549L61.6584 23.5393L51.9413 30.9853L62.1103 27.6226L71.1495 22.0981" stroke="white" stroke-width="2"/>
<path d="M45.8398 19.4558L48.7776 20.897L51.9413 21.8578L55.7829 22.098L58.7206 21.8578" stroke="white" stroke-width="2"/>
<path d="M28.2135 49.7207L13.5249 58.3678L19.8523 61.9707L26.1797 66.2942L31.1512 73.0197L34.089 79.505" stroke="white" stroke-width="2"/>
<path d="M13.5249 58.3677L10.8132 58.6079L7.19751 59.8089L2 62.6912L15.3327 98L34.089 79.2647" stroke="white" stroke-width="2"/>
<path d="M78.9457 50.8199L77.4769 46.8383L76.573 45.8775L75.5561 45.0184L74.5392 43.2353L72.2794 40.8334L71.8274 39.8726L70.9235 39.152L70.0196 38.6716L68.6637 38.4314H66.178L63.9182 38.9118L59.6246 40.8334L56.9128 42.0343L54.879 44.1961L53.0712 46.1177L52.1673 49.2402V51.6422L52.8452 53.5637L56.0089 57.6471L57.3648 59.3285L57.1388 60.5294L56.2349 62.9314L54.879 64.6128L52.8452 66.2941L51.4893 68.2157L49.2296 73.9804V75.6618V76.6226L50.5854 75.902L54.4271 73.7402L58.2687 72.0588L59.3986 71.3383L60.9804 69.8971L61.6584 68.6961L62.3363 67.4951L63.0143 65.0932L63.9182 62.451L67.0819 63.4118L68.6637 63.652H69.7936L71.8274 64.6128L73.6352 65.8137L75.895 66.5343H78.9457H81.9965L84.0303 66.7745L85.6121 67.351L89.4538 69.0324L91.9395 70.6177L94.8772 71.3383L96.0071 70.8579L97.137 70.1373L98.0409 67.7353L98.2669 65.3334L98.0409 62.451L96.911 60.049L91.7135 57.6471L93.2954 62.2108L90.3577 58.1275L87.4199 56.6863L83.8043 55.4853L81.3185 53.3236L78.9457 50.8199Z" stroke="white" stroke-width="2"/>
<path d="M75.4431 59.3285L77.7028 57.1667L80.1886 55.2451" stroke="white" stroke-width="2"/>
<path d="M71.3754 56.446L74.1733 53.1398L77.2509 50.2009" stroke="white" stroke-width="2"/>
<path d="M56.0089 52.603L62.8959 47.7709L70.4715 43.4756" stroke="white" stroke-width="2"/>
<path d="M62.7883 61.7304L63.2402 58.8481L63.9182 56.2059L64.5961 54.7647L65.274 53.5637L66.6299 51.1618L68.6637 49.2402L70.6975 48.0392L72.9573 47.5588L74.9911 47.799" stroke="white" stroke-width="2"/>
<path d="M74.7651 43.9559L74.0872 36.75M74.0872 36.75L75.895 36.0294L77.2509 35.0686L78.1548 34.1079L78.6067 32.6667L78.8327 31.4657L79.0587 30.0245V28.3432L78.8327 26.6618L78.3808 25.2206L77.7028 24.5L76.5729 23.7794L75.443 23.299L74.7651 23.0588H74.0872L72.7313 23.5392L71.6014 24.5L70.4715 25.4608L69.7936 26.6618L69.3416 28.103V30.0245L69.5676 31.4657L69.7936 32.9069L70.6975 34.3481L71.6014 35.549L72.7313 36.5098L74.0872 36.75Z" stroke="white" stroke-width="2"/>
<path d="M129 16.8136L82.6744 16.3333L82.2224 44.9166L124.48 47.7989L129 16.8136Z" stroke="white" stroke-width="2"/>
<path d="M84.9342 18.4951L84.2562 42.5147L122.673 45.3971L126.288 19.2157L84.7082 18.4951" stroke="white" stroke-width="2"/>
<path d="M82.6744 44.9167L78.8328 49.7207" stroke="white" stroke-width="2"/>
<path d="M124.706 48.0393L124.254 50.2011L110.244 60.5295V57.1668L124.254 48.0393" stroke="white" stroke-width="2"/>
<path d="M110.244 57.1667L83.3523 55.2451L110.244 60.7696" stroke="white" stroke-width="2"/>
<path d="M84.7082 46.1176L81.5445 50.4411L85.1601 51.092M106.402 54.9157L109.566 55.4852L111.487 53.6838M106.402 54.9157L113.181 48.0392L113.859 48.0792M106.402 54.9157L93.2954 52.5564M102.786 54.0441L109.114 47.5588L103.464 47.0784L99.3968 53.3235L94.6512 52.7269M93.2954 52.5564L97.363 46.598M93.2954 52.5564L87.4199 51.4988M93.2954 52.5564L94.6512 52.7269M87.4199 51.4988L90.3577 46.1176H87.4199L84.7082 50.6813L81.0925 50.4411L81.9964 49.2401M87.4199 51.4988L85.1601 51.092M113.859 48.0792L117.249 48.2794L115.328 50.0808M113.859 48.0792L84.7082 45.6372L83.8043 46.8382M113.407 51.8823L82.9004 48.0392M113.407 51.8823L115.328 50.0808M113.407 51.8823L111.487 53.6838M82.9004 48.0392L83.8043 46.8382M82.9004 48.0392L81.9964 49.2401M83.8043 46.8382L115.328 50.0808M111.487 53.6838L81.9964 49.2401M94.6512 52.7269L92.3915 55.4852L82.9004 53.6838L85.1601 51.092M86.29 52.7269L90.8096 53.6838L89.9057 54.5245L85.8381 53.6838L86.29 52.7269Z" stroke="white" stroke-width="2"/>
<path d="M73.6352 23.5391L72.7313 20.1764L69.9374 15.8529L68.3556 13.6911L65.726 11.2891L61.8844 8.64698L59.6246 7.2058L55.331 5.28423L50.8114 4.08325" stroke="white" stroke-width="2"/>
<path d="M76.347 23.7793L74.9911 20.1764L73.1833 16.3333L69.7936 11.5293L66.8559 8.88719L63.9181 6.48523L60.9804 4.80385L57.8704 3.63708L53.0712 2.64209" stroke="white" stroke-width="2"/>
<path d="M94.841 28.352C94.835 28.424 94.826 28.499 94.814 28.577C94.802 28.655 94.781 28.727 94.751 28.793C94.721 28.865 94.682 28.919 94.634 28.955C94.568 29.015 94.49 29.048 94.4 29.054C94.316 29.084 94.235 29.093 94.157 29.081C94.079 29.069 94.007 29.048 93.941 29.018C93.857 28.964 93.794 28.901 93.752 28.829C93.716 28.751 93.689 28.67 93.671 28.586C93.653 28.502 93.644 28.415 93.644 28.325C93.644 28.235 93.644 28.151 93.644 28.073V27.371L93.635 25.994C93.635 25.898 93.635 25.823 93.635 25.769C93.635 25.715 93.635 25.667 93.635 25.625C93.635 25.577 93.632 25.526 93.626 25.472C93.626 25.412 93.626 25.328 93.626 25.22C93.626 25.202 93.626 25.172 93.626 25.13C93.632 25.082 93.629 24.959 93.617 24.761C93.383 25.151 93.188 25.466 93.032 25.706C92.882 25.94 92.753 26.123 92.645 26.255C92.543 26.381 92.453 26.468 92.375 26.516C92.297 26.558 92.216 26.582 92.132 26.588C92.084 26.594 92.036 26.585 91.988 26.561C91.94 26.537 91.892 26.507 91.844 26.471C91.802 26.435 91.76 26.399 91.718 26.363C91.682 26.321 91.652 26.282 91.628 26.246C91.484 26.066 91.322 25.85 91.142 25.598C90.962 25.346 90.776 25.04 90.584 24.68C90.584 24.686 90.581 24.785 90.575 24.977C90.575 25.169 90.575 25.409 90.575 25.697C90.575 25.979 90.572 26.285 90.566 26.615C90.566 26.939 90.563 27.242 90.557 27.524C90.557 27.806 90.554 28.043 90.548 28.235C90.542 28.421 90.536 28.514 90.53 28.514C90.53 28.616 90.506 28.712 90.458 28.802C90.41 28.886 90.344 28.955 90.26 29.009C90.182 29.063 90.089 29.093 89.981 29.099C89.873 29.105 89.756 29.075 89.63 29.009C89.552 28.961 89.492 28.892 89.45 28.802C89.414 28.712 89.39 28.628 89.378 28.55C89.372 28.466 89.366 28.385 89.36 28.307C89.36 28.229 89.36 28.148 89.36 28.064L89.369 27.362L89.378 25.976V24.77C89.378 24.248 89.396 23.735 89.432 23.231C89.432 23.165 89.438 23.105 89.45 23.051C89.468 22.991 89.489 22.934 89.513 22.88C89.561 22.784 89.624 22.712 89.702 22.664C89.792 22.61 89.888 22.583 89.99 22.583C90.032 22.583 90.071 22.586 90.107 22.592C90.149 22.592 90.188 22.595 90.224 22.601C90.344 22.625 90.446 22.697 90.53 22.817C90.62 22.931 90.704 23.03 90.782 23.114C90.83 23.168 90.881 23.234 90.935 23.312C90.989 23.39 91.043 23.471 91.097 23.555C91.151 23.639 91.202 23.72 91.25 23.798C91.298 23.876 91.34 23.945 91.376 24.005C91.532 24.257 91.67 24.488 91.79 24.698C91.916 24.908 92.033 25.088 92.141 25.238C92.159 25.22 92.18 25.196 92.204 25.166C92.228 25.13 92.252 25.094 92.276 25.058C92.306 25.016 92.33 24.977 92.348 24.941C92.372 24.905 92.39 24.875 92.402 24.851C92.462 24.755 92.522 24.662 92.582 24.572C92.642 24.476 92.705 24.377 92.771 24.275C92.843 24.167 92.915 24.05 92.987 23.924C93.065 23.798 93.155 23.654 93.257 23.492C93.299 23.42 93.353 23.333 93.419 23.231C93.485 23.129 93.56 23.03 93.644 22.934C93.728 22.838 93.815 22.757 93.905 22.691C94.001 22.619 94.097 22.583 94.193 22.583C94.241 22.583 94.283 22.586 94.319 22.592C94.355 22.592 94.391 22.595 94.427 22.601C94.499 22.607 94.568 22.64 94.634 22.7C94.682 22.748 94.718 22.799 94.742 22.853C94.766 22.931 94.781 22.997 94.787 23.051C94.793 23.093 94.796 23.132 94.796 23.168C94.802 23.204 94.805 23.24 94.805 23.276C94.805 23.612 94.808 23.945 94.814 24.275C94.82 24.605 94.823 24.938 94.823 25.274C94.823 25.682 94.823 26.102 94.823 26.534C94.829 26.966 94.832 27.386 94.832 27.794C94.832 27.878 94.835 27.968 94.841 28.064C94.847 28.16 94.847 28.256 94.841 28.352ZM96.7169 25.211C96.8969 25.121 97.0859 25.058 97.2839 25.022C97.4819 24.98 97.6769 24.971 97.8689 24.995C98.0669 25.013 98.2559 25.064 98.4359 25.148C98.6159 25.226 98.7839 25.34 98.9399 25.49C99.0959 25.646 99.2159 25.817 99.2999 26.003C99.3839 26.189 99.4439 26.396 99.4799 26.624C99.5039 26.78 99.5429 26.924 99.5969 27.056C99.6509 27.188 99.7079 27.32 99.7679 27.452C99.8339 27.584 99.8939 27.716 99.9479 27.848C100.008 27.98 100.056 28.118 100.092 28.262C100.122 28.4 100.11 28.535 100.056 28.667C100.008 28.793 99.9059 28.871 99.7499 28.901C99.6599 28.919 99.5729 28.913 99.4889 28.883C99.4109 28.847 99.3389 28.799 99.2729 28.739C99.2069 28.673 99.1469 28.604 99.0929 28.532C99.0449 28.454 98.9999 28.382 98.9579 28.316C98.8199 28.496 98.6699 28.637 98.5079 28.739C98.3459 28.835 98.1509 28.898 97.9229 28.928C97.7309 28.952 97.5479 28.958 97.3739 28.946C97.1999 28.934 97.0139 28.901 96.8159 28.847C96.5579 28.781 96.3449 28.667 96.1769 28.505C96.0149 28.337 95.8889 28.145 95.7989 27.929C95.7149 27.707 95.6699 27.47 95.6639 27.218C95.6579 26.966 95.6879 26.717 95.7539 26.471C95.8379 26.147 95.9639 25.883 96.1319 25.679C96.2999 25.475 96.4949 25.319 96.7169 25.211ZM96.9419 26.264C96.8579 26.348 96.7919 26.447 96.7439 26.561C96.6959 26.675 96.6659 26.795 96.6539 26.921C96.6479 27.047 96.6599 27.173 96.6899 27.299C96.7199 27.425 96.7679 27.536 96.8339 27.632C96.8939 27.716 96.9959 27.788 97.1399 27.848C97.2839 27.902 97.4339 27.935 97.5899 27.947C97.7699 27.959 97.9259 27.911 98.0579 27.803C98.1959 27.695 98.2979 27.56 98.3639 27.398C98.4359 27.23 98.4689 27.053 98.4629 26.867C98.4569 26.675 98.4059 26.501 98.3099 26.345C98.2379 26.231 98.1419 26.147 98.0219 26.093C97.9079 26.039 97.7849 26.012 97.6529 26.012C97.5209 26.006 97.3889 26.027 97.2569 26.075C97.1309 26.117 97.0259 26.18 96.9419 26.264ZM100.94 25.814C100.94 25.742 100.94 25.661 100.94 25.571C100.94 25.475 100.943 25.379 100.949 25.283C100.955 25.181 100.964 25.085 100.976 24.995C100.994 24.899 101.018 24.815 101.048 24.743C101.096 24.635 101.171 24.563 101.273 24.527C101.375 24.485 101.486 24.467 101.606 24.473C101.732 24.473 101.831 24.494 101.903 24.536C101.975 24.578 102.029 24.635 102.065 24.707C102.101 24.773 102.122 24.851 102.128 24.941C102.14 25.025 102.146 25.115 102.146 25.211C102.2 25.115 102.272 25.037 102.362 24.977C102.458 24.917 102.554 24.869 102.65 24.833C102.746 24.797 102.833 24.773 102.911 24.761C102.989 24.743 103.034 24.734 103.046 24.734C103.196 24.722 103.331 24.719 103.451 24.725C103.577 24.731 103.715 24.758 103.865 24.806C103.961 24.842 104.06 24.893 104.162 24.959C104.264 25.019 104.354 25.091 104.432 25.175C104.51 25.259 104.561 25.352 104.585 25.454C104.615 25.55 104.603 25.652 104.549 25.76C104.465 25.91 104.372 25.985 104.27 25.985C104.168 25.979 104.057 25.961 103.937 25.931C103.871 25.919 103.793 25.892 103.703 25.85C103.613 25.808 103.535 25.781 103.469 25.769C103.265 25.739 103.085 25.754 102.929 25.814C102.773 25.874 102.638 25.946 102.524 26.03C102.392 26.132 102.278 26.249 102.182 26.381V27.677C102.182 27.839 102.179 28.007 102.173 28.181C102.173 28.355 102.149 28.514 102.101 28.658C102.059 28.796 101.984 28.91 101.876 29C101.774 29.084 101.624 29.12 101.426 29.108C101.318 29.102 101.222 29.051 101.138 28.955C101.054 28.853 101.003 28.754 100.985 28.658C100.973 28.568 100.964 28.46 100.958 28.334C100.952 28.208 100.946 28.076 100.94 27.938C100.94 27.8 100.94 27.662 100.94 27.524C100.94 27.38 100.94 27.248 100.94 27.128V25.814ZM109.159 24.986C109.213 25.07 109.237 25.16 109.231 25.256C109.231 25.394 109.207 25.514 109.159 25.616C109.147 25.646 109.129 25.685 109.105 25.733C109.087 25.781 109.066 25.832 109.042 25.886C109.024 25.94 109.003 25.991 108.979 26.039C108.955 26.087 108.937 26.123 108.925 26.147L108.907 26.192C108.823 26.378 108.742 26.558 108.664 26.732C108.586 26.906 108.499 27.092 108.403 27.29C108.307 27.482 108.214 27.671 108.124 27.857C108.04 28.037 107.956 28.214 107.872 28.388C107.848 28.436 107.827 28.484 107.809 28.532C107.791 28.574 107.767 28.619 107.737 28.667L107.305 29.594C107.227 29.75 107.152 29.903 107.08 30.053C107.014 30.203 106.939 30.353 106.855 30.503C106.837 30.533 106.819 30.56 106.801 30.584C106.789 30.614 106.777 30.644 106.765 30.674C106.723 30.746 106.66 30.815 106.576 30.881C106.498 30.953 106.414 30.992 106.324 30.998C106.162 31.01 106.021 30.962 105.901 30.854C105.829 30.812 105.772 30.752 105.73 30.674C105.706 30.62 105.694 30.551 105.694 30.467C105.7 30.431 105.703 30.395 105.703 30.359C105.709 30.329 105.715 30.299 105.721 30.269C105.733 30.239 105.742 30.209 105.748 30.179C105.754 30.149 105.763 30.125 105.775 30.107C105.793 30.059 105.808 30.035 105.82 30.035L106.477 28.613C106.447 28.547 106.417 28.481 106.387 28.415C106.357 28.343 106.33 28.28 106.306 28.226C106.228 28.04 106.144 27.845 106.054 27.641C105.97 27.431 105.883 27.224 105.793 27.02C105.703 26.81 105.61 26.606 105.514 26.408C105.418 26.21 105.322 26.021 105.226 25.841C105.19 25.781 105.157 25.718 105.127 25.652C105.097 25.58 105.073 25.511 105.055 25.445C105.037 25.373 105.031 25.301 105.037 25.229C105.043 25.157 105.07 25.085 105.118 25.013C105.166 24.923 105.229 24.86 105.307 24.824C105.385 24.782 105.466 24.764 105.55 24.77C105.64 24.77 105.724 24.788 105.802 24.824C105.88 24.86 105.943 24.908 105.991 24.968C106.093 25.076 106.174 25.196 106.234 25.328C106.294 25.46 106.351 25.595 106.405 25.733C106.519 25.973 106.636 26.225 106.756 26.489C106.876 26.753 106.996 27.011 107.116 27.263L107.584 26.273C107.632 26.177 107.674 26.084 107.71 25.994C107.752 25.904 107.794 25.817 107.836 25.733C107.884 25.631 107.929 25.526 107.971 25.418C108.019 25.31 108.073 25.211 108.133 25.121C108.145 25.097 108.157 25.076 108.169 25.058C108.181 25.04 108.193 25.019 108.205 24.995C108.259 24.923 108.307 24.866 108.349 24.824C108.379 24.8 108.403 24.782 108.421 24.77C108.445 24.752 108.472 24.74 108.502 24.734C108.544 24.722 108.583 24.716 108.619 24.716C108.661 24.71 108.7 24.71 108.736 24.716C108.796 24.734 108.868 24.761 108.952 24.797C109.042 24.833 109.111 24.896 109.159 24.986ZM110.715 25.211C110.895 25.121 111.084 25.058 111.282 25.022C111.48 24.98 111.675 24.971 111.867 24.995C112.065 25.013 112.254 25.064 112.434 25.148C112.614 25.226 112.782 25.34 112.938 25.49C113.094 25.646 113.214 25.817 113.298 26.003C113.382 26.189 113.442 26.396 113.478 26.624C113.502 26.78 113.541 26.924 113.595 27.056C113.649 27.188 113.706 27.32 113.766 27.452C113.832 27.584 113.892 27.716 113.946 27.848C114.006 27.98 114.054 28.118 114.09 28.262C114.12 28.4 114.108 28.535 114.054 28.667C114.006 28.793 113.904 28.871 113.748 28.901C113.658 28.919 113.571 28.913 113.487 28.883C113.409 28.847 113.337 28.799 113.271 28.739C113.205 28.673 113.145 28.604 113.091 28.532C113.043 28.454 112.998 28.382 112.956 28.316C112.818 28.496 112.668 28.637 112.506 28.739C112.344 28.835 112.149 28.898 111.921 28.928C111.729 28.952 111.546 28.958 111.372 28.946C111.198 28.934 111.012 28.901 110.814 28.847C110.556 28.781 110.343 28.667 110.175 28.505C110.013 28.337 109.887 28.145 109.797 27.929C109.713 27.707 109.668 27.47 109.662 27.218C109.656 26.966 109.686 26.717 109.752 26.471C109.836 26.147 109.962 25.883 110.13 25.679C110.298 25.475 110.493 25.319 110.715 25.211ZM110.94 26.264C110.856 26.348 110.79 26.447 110.742 26.561C110.694 26.675 110.664 26.795 110.652 26.921C110.646 27.047 110.658 27.173 110.688 27.299C110.718 27.425 110.766 27.536 110.832 27.632C110.892 27.716 110.994 27.788 111.138 27.848C111.282 27.902 111.432 27.935 111.588 27.947C111.768 27.959 111.924 27.911 112.056 27.803C112.194 27.695 112.296 27.56 112.362 27.398C112.434 27.23 112.467 27.053 112.461 26.867C112.455 26.675 112.404 26.501 112.308 26.345C112.236 26.231 112.14 26.147 112.02 26.093C111.906 26.039 111.783 26.012 111.651 26.012C111.519 26.006 111.387 26.027 111.255 26.075C111.129 26.117 111.024 26.18 110.94 26.264ZM114.938 25.787C114.938 25.649 114.935 25.502 114.929 25.346C114.929 25.19 114.956 25.049 115.01 24.923C115.058 24.809 115.136 24.728 115.244 24.68C115.358 24.626 115.469 24.614 115.577 24.644C115.685 24.662 115.769 24.695 115.829 24.743C115.889 24.791 115.931 24.848 115.955 24.914C115.985 24.974 116.003 25.046 116.009 25.13C116.015 25.208 116.021 25.286 116.027 25.364C116.087 25.256 116.162 25.169 116.252 25.103C116.342 25.037 116.435 24.983 116.531 24.941C116.627 24.899 116.717 24.869 116.801 24.851C116.891 24.833 116.96 24.824 117.008 24.824C117.236 24.824 117.461 24.875 117.683 24.977C117.911 25.073 118.1 25.211 118.25 25.391C118.334 25.499 118.397 25.613 118.439 25.733C118.487 25.847 118.52 25.967 118.538 26.093C118.562 26.219 118.577 26.348 118.583 26.48C118.589 26.606 118.595 26.735 118.601 26.867C118.631 27.251 118.631 27.632 118.601 28.01C118.595 28.088 118.592 28.178 118.592 28.28C118.592 28.382 118.583 28.484 118.565 28.586C118.553 28.682 118.526 28.769 118.484 28.847C118.448 28.919 118.385 28.964 118.295 28.982C118.169 29.012 118.064 29.018 117.98 29C117.902 28.988 117.839 28.961 117.791 28.919C117.743 28.877 117.707 28.823 117.683 28.757C117.659 28.691 117.638 28.616 117.62 28.532C117.608 28.466 117.596 28.391 117.584 28.307C117.578 28.217 117.572 28.127 117.566 28.037C117.566 27.947 117.563 27.86 117.557 27.776C117.557 27.686 117.557 27.605 117.557 27.533C117.557 27.419 117.554 27.293 117.548 27.155C117.542 27.017 117.542 26.888 117.548 26.768C117.548 26.486 117.473 26.273 117.323 26.129C117.179 25.979 116.981 25.916 116.729 25.94C116.537 25.964 116.369 26.042 116.225 26.174C116.081 26.3 116.012 26.465 116.018 26.669C116.018 26.747 116.018 26.819 116.018 26.885C116.018 26.951 116.015 27.017 116.009 27.083C116.009 27.149 116.009 27.221 116.009 27.299C116.009 27.377 116.009 27.464 116.009 27.56C116.009 27.758 116.009 27.968 116.009 28.19C116.009 28.406 115.982 28.583 115.928 28.721C115.88 28.865 115.799 28.964 115.685 29.018C115.571 29.072 115.436 29.057 115.28 28.973C115.214 28.937 115.16 28.889 115.118 28.829C115.082 28.763 115.052 28.694 115.028 28.622C115.01 28.55 114.998 28.478 114.992 28.406C114.986 28.328 114.98 28.256 114.974 28.19C114.956 27.992 114.944 27.809 114.938 27.641C114.938 27.467 114.938 27.281 114.938 27.083V25.787ZM94.094 36.382C94.106 36.58 94.103 36.784 94.085 36.994C94.073 37.204 94.052 37.408 94.022 37.606C93.962 37.948 93.851 38.281 93.689 38.605C93.527 38.929 93.29 39.205 92.978 39.433C92.654 39.673 92.285 39.838 91.871 39.928C91.457 40.012 91.046 40.063 90.638 40.081C90.5 40.093 90.359 40.096 90.215 40.09C90.077 40.09 89.942 40.075 89.81 40.045C89.702 40.027 89.621 39.994 89.567 39.946C89.537 39.928 89.513 39.904 89.495 39.874C89.477 39.844 89.462 39.814 89.45 39.784C89.432 39.754 89.417 39.724 89.405 39.694C89.399 39.658 89.39 39.622 89.378 39.586C89.372 39.556 89.366 39.529 89.36 39.505C89.36 39.475 89.36 39.448 89.36 39.424V34.285C89.36 34.243 89.36 34.204 89.36 34.168C89.36 34.132 89.366 34.096 89.378 34.06C89.39 33.976 89.408 33.907 89.432 33.853C89.456 33.781 89.489 33.73 89.531 33.7C89.567 33.67 89.603 33.649 89.639 33.637C89.675 33.619 89.708 33.604 89.738 33.592C89.774 33.58 89.81 33.58 89.846 33.592C89.888 33.598 89.933 33.589 89.981 33.565L91.484 33.601C91.88 33.613 92.234 33.706 92.546 33.88C92.858 34.048 93.125 34.264 93.347 34.528C93.569 34.792 93.743 35.089 93.869 35.419C93.995 35.743 94.07 36.064 94.094 36.382ZM92.42 38.092C92.534 37.912 92.618 37.705 92.672 37.471C92.726 37.237 92.75 37 92.744 36.76C92.738 36.514 92.705 36.277 92.645 36.049C92.585 35.815 92.501 35.608 92.393 35.428C92.309 35.296 92.201 35.188 92.069 35.104C91.937 35.02 91.79 34.957 91.628 34.915C91.466 34.867 91.292 34.834 91.106 34.816C90.926 34.798 90.749 34.789 90.575 34.789C90.581 34.963 90.584 35.131 90.584 35.293C90.584 35.455 90.584 35.626 90.584 35.806C90.578 36.022 90.575 36.232 90.575 36.436C90.575 36.64 90.575 36.838 90.575 37.03V38.866C90.761 38.86 90.938 38.851 91.106 38.839C91.28 38.821 91.445 38.785 91.601 38.731C91.763 38.677 91.91 38.602 92.042 38.506C92.18 38.404 92.306 38.266 92.42 38.092ZM98.0396 38.767C98.1116 38.749 98.1836 38.737 98.2556 38.731C98.3336 38.725 98.4026 38.734 98.4626 38.758C98.5286 38.782 98.5826 38.824 98.6246 38.884C98.6666 38.938 98.6876 39.016 98.6876 39.118C98.6876 39.19 98.6696 39.259 98.6336 39.325C98.5976 39.391 98.5526 39.451 98.4986 39.505C98.4446 39.559 98.3846 39.607 98.3186 39.649C98.2526 39.685 98.1896 39.715 98.1296 39.739C97.9556 39.817 97.7546 39.877 97.5266 39.919C97.3046 39.961 97.0736 39.976 96.8336 39.964C96.5096 39.952 96.1976 39.889 95.8976 39.775C95.6036 39.655 95.3726 39.46 95.2046 39.19C95.0486 38.926 94.9556 38.632 94.9256 38.308C94.8956 37.984 94.9106 37.678 94.9706 37.39C95.0366 37.042 95.1476 36.76 95.3036 36.544C95.4656 36.322 95.6576 36.145 95.8796 36.013C96.1496 35.857 96.4526 35.776 96.7886 35.77C97.1246 35.764 97.4456 35.83 97.7516 35.968C97.9556 36.058 98.1386 36.181 98.3006 36.337C98.4626 36.487 98.5856 36.67 98.6696 36.886C98.6936 36.94 98.7116 37.006 98.7236 37.084C98.7416 37.162 98.7536 37.246 98.7596 37.336C98.7656 37.42 98.7656 37.504 98.7596 37.588C98.7536 37.672 98.7386 37.747 98.7146 37.813C98.6786 37.921 98.6336 38.005 98.5796 38.065C98.5256 38.125 98.4566 38.17 98.3726 38.2C98.2886 38.23 98.1866 38.251 98.0666 38.263C97.9526 38.269 97.8146 38.275 97.6526 38.281C97.5086 38.287 97.3736 38.29 97.2476 38.29C97.1216 38.29 96.9926 38.29 96.8606 38.29C96.7286 38.284 96.5906 38.281 96.4466 38.281C96.3086 38.275 96.1526 38.269 95.9786 38.263C95.9606 38.383 95.9756 38.488 96.0236 38.578C96.0776 38.662 96.1496 38.734 96.2396 38.794C96.3296 38.848 96.4316 38.89 96.5456 38.92C96.6596 38.95 96.7706 38.968 96.8786 38.974C97.0826 38.986 97.2776 38.971 97.4636 38.929C97.6496 38.881 97.8416 38.827 98.0396 38.767ZM97.6526 37.021C97.5386 36.889 97.4186 36.793 97.2926 36.733C97.1966 36.691 97.0946 36.673 96.9866 36.679C96.8846 36.679 96.7856 36.694 96.6896 36.724C96.5156 36.766 96.3686 36.856 96.2486 36.994C96.2366 37.006 96.2156 37.036 96.1856 37.084C96.1556 37.126 96.1256 37.171 96.0956 37.219C96.0716 37.267 96.0536 37.312 96.0416 37.354C96.0296 37.396 96.0356 37.417 96.0596 37.417H97.8236C97.8176 37.333 97.8026 37.264 97.7786 37.21C97.7546 37.15 97.7126 37.087 97.6526 37.021ZM101.728 38.416C101.614 38.344 101.485 38.287 101.341 38.245C101.203 38.203 101.059 38.164 100.909 38.128C100.765 38.092 100.624 38.053 100.486 38.011C100.348 37.963 100.222 37.897 100.108 37.813C99.8621 37.627 99.7181 37.399 99.6761 37.129C99.6401 36.853 99.7001 36.577 99.8561 36.301C99.9401 36.157 100.051 36.04 100.189 35.95C100.327 35.854 100.477 35.782 100.639 35.734C100.807 35.68 100.978 35.65 101.152 35.644C101.326 35.638 101.491 35.647 101.647 35.671C101.749 35.689 101.857 35.716 101.971 35.752C102.085 35.782 102.19 35.824 102.286 35.878C102.388 35.932 102.478 36.001 102.556 36.085C102.64 36.163 102.7 36.262 102.736 36.382C102.76 36.46 102.763 36.535 102.745 36.607C102.733 36.679 102.703 36.739 102.655 36.787C102.613 36.835 102.556 36.871 102.484 36.895C102.418 36.919 102.346 36.925 102.268 36.913C102.178 36.895 102.094 36.868 102.016 36.832C101.938 36.796 101.86 36.757 101.782 36.715C101.704 36.673 101.623 36.637 101.539 36.607C101.461 36.577 101.377 36.562 101.287 36.562C101.149 36.556 101.035 36.58 100.945 36.634C100.855 36.688 100.792 36.754 100.756 36.832C100.726 36.91 100.729 36.994 100.765 37.084C100.807 37.174 100.891 37.252 101.017 37.318C101.131 37.378 101.257 37.426 101.395 37.462C101.533 37.498 101.668 37.534 101.8 37.57C101.938 37.606 102.07 37.648 102.196 37.696C102.328 37.744 102.445 37.81 102.547 37.894C102.745 38.056 102.865 38.245 102.907 38.461C102.955 38.677 102.943 38.89 102.871 39.1C102.799 39.31 102.673 39.496 102.493 39.658C102.319 39.82 102.112 39.928 101.872 39.982C101.698 40.018 101.509 40.036 101.305 40.036C101.107 40.036 100.909 40.015 100.711 39.973C100.519 39.931 100.333 39.865 100.153 39.775C99.9791 39.685 99.8321 39.571 99.7121 39.433C99.6281 39.337 99.5831 39.229 99.5771 39.109C99.5771 38.983 99.6011 38.875 99.6491 38.785C99.7031 38.689 99.7781 38.623 99.8741 38.587C99.9701 38.551 100.078 38.572 100.198 38.65C100.294 38.716 100.408 38.782 100.54 38.848C100.672 38.908 100.804 38.956 100.936 38.992C101.068 39.028 101.194 39.046 101.314 39.046C101.44 39.046 101.548 39.019 101.638 38.965C101.77 38.881 101.839 38.785 101.845 38.677C101.851 38.563 101.812 38.476 101.728 38.416ZM104.888 36.589C104.888 36.757 104.888 36.946 104.888 37.156C104.894 37.366 104.897 37.585 104.897 37.813C104.897 38.035 104.897 38.257 104.897 38.479C104.897 38.695 104.894 38.896 104.888 39.082C104.882 39.172 104.873 39.271 104.861 39.379C104.849 39.481 104.825 39.577 104.789 39.667C104.753 39.757 104.696 39.832 104.618 39.892C104.546 39.946 104.447 39.97 104.321 39.964C104.135 39.952 104 39.871 103.916 39.721C103.838 39.571 103.793 39.361 103.781 39.091C103.781 38.953 103.778 38.794 103.772 38.614C103.772 38.434 103.769 38.251 103.763 38.065C103.763 37.879 103.763 37.699 103.763 37.525C103.763 37.345 103.763 37.183 103.763 37.039C103.763 36.955 103.76 36.853 103.754 36.733C103.754 36.613 103.757 36.49 103.763 36.364C103.769 36.238 103.784 36.118 103.808 36.004C103.832 35.884 103.871 35.785 103.925 35.707C103.967 35.659 104.027 35.623 104.105 35.599C104.183 35.569 104.264 35.554 104.348 35.554C104.438 35.554 104.522 35.569 104.6 35.599C104.684 35.629 104.744 35.671 104.78 35.725C104.804 35.761 104.822 35.812 104.834 35.878C104.846 35.944 104.855 36.019 104.861 36.103C104.873 36.181 104.879 36.265 104.879 36.355C104.885 36.439 104.888 36.517 104.888 36.589ZM104.546 34.771C104.36 34.819 104.204 34.801 104.078 34.717C103.958 34.627 103.883 34.495 103.853 34.321C103.829 34.195 103.838 34.084 103.88 33.988C103.922 33.892 103.985 33.82 104.069 33.772C104.153 33.718 104.249 33.694 104.357 33.7C104.465 33.706 104.573 33.748 104.681 33.826C104.783 33.898 104.855 33.982 104.897 34.078C104.945 34.174 104.96 34.267 104.942 34.357C104.93 34.447 104.891 34.531 104.825 34.609C104.759 34.681 104.666 34.735 104.546 34.771ZM109.504 38.299C109.504 38.491 109.498 38.698 109.486 38.92C109.48 39.142 109.471 39.349 109.459 39.541C109.459 39.721 109.45 39.901 109.432 40.081C109.42 40.237 109.396 40.405 109.36 40.585C109.324 40.771 109.273 40.942 109.207 41.098C109.123 41.302 109.009 41.476 108.865 41.62C108.721 41.77 108.535 41.878 108.307 41.944C108.115 41.992 107.935 42.022 107.767 42.034C107.599 42.052 107.419 42.049 107.227 42.025C107.101 42.007 106.966 41.971 106.822 41.917C106.678 41.869 106.543 41.806 106.417 41.728C106.291 41.65 106.18 41.557 106.084 41.449C105.988 41.347 105.922 41.23 105.886 41.098C105.844 40.936 105.841 40.795 105.877 40.675C105.919 40.555 105.982 40.468 106.066 40.414C106.15 40.36 106.249 40.351 106.363 40.387C106.477 40.423 106.585 40.516 106.687 40.666C106.759 40.774 106.864 40.861 107.002 40.927C107.14 40.993 107.287 41.032 107.443 41.044C107.599 41.056 107.749 41.035 107.893 40.981C108.043 40.933 108.16 40.846 108.244 40.72C108.304 40.63 108.346 40.501 108.37 40.333C108.4 40.165 108.418 40 108.424 39.838C108.118 39.964 107.803 40.012 107.479 39.982C107.161 39.946 106.87 39.847 106.606 39.685C106.348 39.517 106.138 39.295 105.976 39.019C105.82 38.737 105.754 38.419 105.778 38.065C105.796 37.759 105.859 37.471 105.967 37.201C106.081 36.931 106.267 36.706 106.525 36.526C106.735 36.382 106.972 36.289 107.236 36.247C107.5 36.199 107.755 36.175 108.001 36.175C108.145 36.175 108.286 36.175 108.424 36.175C108.568 36.175 108.7 36.193 108.82 36.229C108.94 36.265 109.048 36.325 109.144 36.409C109.24 36.493 109.312 36.616 109.36 36.778C109.438 37.03 109.48 37.279 109.486 37.525C109.498 37.771 109.504 38.029 109.504 38.299ZM107.767 39.046C107.827 39.046 107.884 39.04 107.938 39.028C107.998 39.016 108.055 39.001 108.109 38.983C108.211 38.947 108.286 38.899 108.334 38.839C108.388 38.779 108.424 38.713 108.442 38.641C108.46 38.563 108.466 38.479 108.46 38.389C108.46 38.299 108.46 38.206 108.46 38.11C108.46 38.032 108.457 37.945 108.451 37.849C108.451 37.753 108.445 37.663 108.433 37.579C108.421 37.489 108.403 37.411 108.379 37.345C108.355 37.279 108.319 37.237 108.271 37.219C108.187 37.195 108.091 37.18 107.983 37.174C107.875 37.162 107.767 37.162 107.659 37.174C107.551 37.18 107.446 37.201 107.344 37.237C107.248 37.267 107.167 37.309 107.101 37.363C107.011 37.441 106.942 37.537 106.894 37.651C106.846 37.765 106.816 37.885 106.804 38.011C106.798 38.137 106.807 38.26 106.831 38.38C106.861 38.5 106.912 38.608 106.984 38.704C107.068 38.824 107.182 38.911 107.326 38.965C107.47 39.019 107.617 39.046 107.767 39.046ZM110.333 36.787C110.333 36.649 110.33 36.502 110.324 36.346C110.324 36.19 110.351 36.049 110.405 35.923C110.453 35.809 110.531 35.728 110.639 35.68C110.753 35.626 110.864 35.614 110.972 35.644C111.08 35.662 111.164 35.695 111.224 35.743C111.284 35.791 111.326 35.848 111.35 35.914C111.38 35.974 111.398 36.046 111.404 36.13C111.41 36.208 111.416 36.286 111.422 36.364C111.482 36.256 111.557 36.169 111.647 36.103C111.737 36.037 111.83 35.983 111.926 35.941C112.022 35.899 112.112 35.869 112.196 35.851C112.286 35.833 112.355 35.824 112.403 35.824C112.631 35.824 112.856 35.875 113.078 35.977C113.306 36.073 113.495 36.211 113.645 36.391C113.729 36.499 113.792 36.613 113.834 36.733C113.882 36.847 113.915 36.967 113.933 37.093C113.957 37.219 113.972 37.348 113.978 37.48C113.984 37.606 113.99 37.735 113.996 37.867C114.026 38.251 114.026 38.632 113.996 39.01C113.99 39.088 113.987 39.178 113.987 39.28C113.987 39.382 113.978 39.484 113.96 39.586C113.948 39.682 113.921 39.769 113.879 39.847C113.843 39.919 113.78 39.964 113.69 39.982C113.564 40.012 113.459 40.018 113.375 40C113.297 39.988 113.234 39.961 113.186 39.919C113.138 39.877 113.102 39.823 113.078 39.757C113.054 39.691 113.033 39.616 113.015 39.532C113.003 39.466 112.991 39.391 112.979 39.307C112.973 39.217 112.967 39.127 112.961 39.037C112.961 38.947 112.958 38.86 112.952 38.776C112.952 38.686 112.952 38.605 112.952 38.533C112.952 38.419 112.949 38.293 112.943 38.155C112.937 38.017 112.937 37.888 112.943 37.768C112.943 37.486 112.868 37.273 112.718 37.129C112.574 36.979 112.376 36.916 112.124 36.94C111.932 36.964 111.764 37.042 111.62 37.174C111.476 37.3 111.407 37.465 111.413 37.669C111.413 37.747 111.413 37.819 111.413 37.885C111.413 37.951 111.41 38.017 111.404 38.083C111.404 38.149 111.404 38.221 111.404 38.299C111.404 38.377 111.404 38.464 111.404 38.56C111.404 38.758 111.404 38.968 111.404 39.19C111.404 39.406 111.377 39.583 111.323 39.721C111.275 39.865 111.194 39.964 111.08 40.018C110.966 40.072 110.831 40.057 110.675 39.973C110.609 39.937 110.555 39.889 110.513 39.829C110.477 39.763 110.447 39.694 110.423 39.622C110.405 39.55 110.393 39.478 110.387 39.406C110.381 39.328 110.375 39.256 110.369 39.19C110.351 38.992 110.339 38.809 110.333 38.641C110.333 38.467 110.333 38.281 110.333 38.083V36.787Z" fill="white"/>
</svg>
